<?xml version="1.0" encoding="UTF-8"?><svg id="Layer_1" xmlns="http://www.w3.org/2000/svg" xmlns:xlink="http://www.w3.org/1999/xlink" viewBox="0 0 423.4 423.4"><defs><style>.cls-1{fill:#f0c419;}.cls-2{fill:#fff;filter:url(#drop-shadow-1);}</style><filter id="drop-shadow-1" x="81.03" y="104.48" width="214.46" height="225.77" filterUnits="userSpaceOnUse"><feOffset dx="0" dy="11.34"/><feGaussianBlur result="blur" stdDeviation="0"/><feFlood flood-color="#231f20" flood-opacity=".1"/><feComposite in2="blur" operator="in"/><feComposite in="SourceGraphic"/></filter></defs><path class="cls-1" d="M37.67.5h174.03c116.56,0,211.2,94.63,211.2,211.2h0c0,116.56-94.63,211.2-211.2,211.2h0C95.13,422.9.5,328.26.5,211.7V37.67C.5,17.16,17.16.5,37.67.5Z"/><path class="cls-2" d="M294.93,123.92v.14l-55.72,183.78c-1.73,6.11-7.07,10.51-13.4,11.02-.44.04-.88.06-1.32.06-5.92.02-11.3-3.4-13.81-8.76l-34.85-71.52c-.71-1.47-.42-3.23.74-4.39l55.46-55.46c2.91-3.07,2.79-7.92-.28-10.83-2.96-2.81-7.6-2.81-10.55,0l-55.48,55.46c-1.15,1.16-2.92,1.45-4.39.74l-71.59-34.84c-7.63-3.66-10.85-12.81-7.19-20.44,1.89-3.94,5.37-6.88,9.57-8.09l183.78-55.72h.14c8.15-2.29,16.6,2.46,18.89,10.6.76,2.7.76,5.56,0,8.26Z"/></svg>